<?xml version="1.0" encoding="iso-8859-1"?>
<!-- Generator: Adobe Illustrator 19.0.0, SVG Export Plug-In . SVG Version: 6.00 Build 0)  -->
<svg version="1.1" id="Layer_1" xmlns="http://www.w3.org/2000/svg" xmlns:xlink="http://www.w3.org/1999/xlink" x="0px" y="0px"
	 viewBox="0 0 505.001 505.001" style="enable-background:new 0 0 505.001 505.001;" xml:space="preserve">
<g>
	<g>
		<path style="fill:#96C133;" d="M268.664,429.574c12.715-103.755,11.145-232.294,3.857-278.922
			c-12.77-81.708-78.613-139.27-147.069-128.571S11.847,107.689,24.617,189.397c7.288,46.629,45.011,169.506,88.789,264.432"/>
		<path style="fill:#96C133;" d="M403.636,489.968c29.851-36.914,60.159-86.811,68.565-106.528
			c14.731-34.55,3.208-72.56-25.738-84.902c-28.946-12.341-64.355,5.659-79.086,40.209c-8.406,19.716-23.425,76.127-29.388,123.226"
			/>
		<path style="fill:#499421;" d="M446.461,298.539c-10.434-4.454-30.832,19.948-45.564,54.503
			c-8.406,19.718-28.313,74.043-41.915,117.882l-20.994-8.95c5.959-47.1,20.983-103.506,29.389-123.224
			C382.11,304.195,417.511,286.202,446.461,298.539z"/>
		<path style="fill:#499421;" d="M84.52,180.035c7.288,46.628,36.272,170.872,66.404,267.93l-37.518,5.864
			c-43.778-94.926-81.501-217.803-88.789-264.432c-12.719-81.378,32.02-156.011,100.01-167.176
			C89.79,28.713,71.85,98.967,84.52,180.035z"/>
		<path style="fill:#E58B25;" d="M462.167,497.501H41.452c46.275-43.546,123.235-72.036,210.358-72.036
			c15.798,0,31.261,0.941,46.264,2.739C365.833,436.297,424.288,461.849,462.167,497.501z"/>
		<path style="fill:#FFC022;" d="M462.167,497.501H133.98c37.879-35.652,96.334-61.204,164.094-69.297
			C365.833,436.297,424.288,461.849,462.167,497.501z"/>
	</g>
	<g>
		<path d="M344.892,420.568c0.526,0.112,1.051,0.166,1.568,0.166c3.465,0,6.578-2.415,7.329-5.94
			c7.318-34.392,15.748-62.001,20.484-73.102c13.083-30.688,44.152-46.95,69.252-36.252c6.761,2.882,12.51,7.435,17.087,13.533
			c2.486,3.312,7.188,3.982,10.501,1.495c3.313-2.487,3.982-7.188,1.495-10.501c-6.18-8.231-13.985-14.397-23.202-18.326
			c-4.902-2.089-9.966-3.405-15.086-4.029v-9.386c0-4.142-3.358-7.5-7.5-7.5s-7.5,3.358-7.5,7.5v9.526
			c-5.481,0.748-10.909,2.241-16.167,4.422l-11.258-17.038c-2.283-3.456-6.936-4.406-10.392-2.123
			c-3.456,2.283-4.406,6.936-2.123,10.392l10.538,15.948c-12.324,8.432-22.823,20.922-29.444,36.453
			c-6.223,14.584-14.806,45.072-21.358,75.865C338.255,415.722,340.841,419.705,344.892,420.568z"/>
		<path d="M298.966,420.758c-15.463-1.853-31.329-2.792-47.157-2.792c-85.648,0-166.208,27.691-215.497,74.074
			c-3.017,2.839-3.161,7.585-0.322,10.602c2.839,3.016,7.584,3.161,10.602,0.322c46.577-43.831,123.294-69.998,205.218-69.998
			c15.233,0,30.499,0.904,45.375,2.687c64.291,7.678,122.551,32.212,159.843,67.311c1.448,1.363,3.295,2.039,5.139,2.039
			c1.996,0,3.987-0.792,5.463-2.36c2.839-3.016,2.695-7.763-0.321-10.602C427.148,454.241,367.362,428.926,298.966,420.758z"/>
		<path d="M73.336,377.092L61.6,384.58c-3.492,2.228-4.517,6.865-2.289,10.357c1.431,2.242,3.854,3.467,6.33,3.467
			c1.38,0,2.777-0.381,4.027-1.178l9.169-5.85c5.64,14.419,11.478,28.672,17.437,42.45c1.225,2.832,3.986,4.525,6.887,4.525
			c0.994,0,2.004-0.199,2.974-0.618c3.802-1.644,5.551-6.059,3.907-9.861c-37.995-87.861-71.014-194.84-78.015-239.632
			c-12.111-77.49,30.319-148.704,94.583-158.748C190.865,19.444,253,74.321,265.111,151.81
			c6.999,44.785,8.202,156.739-1.164,252.019c-0.405,4.123,2.608,7.792,6.73,8.198c4.127,0.408,7.792-2.608,8.198-6.73
			c2.124-21.609,3.706-44.086,4.805-66.471l10.909,7.96c1.334,0.973,2.881,1.442,4.415,1.442c2.314,0,4.597-1.067,6.065-3.08
			c2.441-3.346,1.708-8.038-1.638-10.479l-18.969-13.841c0.188-4.97,0.352-9.922,0.493-14.846l11.571-1.809
			c4.092-0.64,6.892-4.476,6.252-8.568c-0.64-4.092-4.479-6.887-8.568-6.252l-8.886,1.389c0.838-42.874-0.053-82.692-2.254-112.095
			l10.783,1.785c0.415,0.068,0.827,0.102,1.234,0.102c3.603,0,6.782-2.604,7.39-6.276c0.676-4.086-2.088-7.948-6.174-8.625
			l-14.613-2.42c-0.538-5.065-1.124-9.665-1.758-13.719c-0.331-2.12-0.707-4.219-1.107-6.308l17.158-10.964
			c3.49-2.23,4.512-6.868,2.281-10.358c-2.23-3.49-6.868-4.51-10.358-2.281l-12.731,8.135
			c-11.647-41.314-36.776-75.004-68.235-94.869l6.578-9.015c2.441-3.346,1.708-8.038-1.638-10.479
			c-3.347-2.441-8.038-1.708-10.479,1.638l-7.672,10.515c-4.275-2.067-8.637-3.894-13.076-5.456l2.704-10.713
			c1.014-4.017-1.42-8.094-5.436-9.108c-4.021-1.012-8.094,1.419-9.108,5.436l-2.599,10.295c-13.603-2.955-27.71-3.509-41.919-1.289
			c-17.265,2.698-33.139,9.243-47.13,18.796l-7.221-12.191c-2.111-3.563-6.711-4.742-10.275-2.63
			c-3.564,2.111-4.742,6.711-2.63,10.275l8.187,13.821c-3.212,2.822-6.293,5.819-9.242,8.975l-10.164-7.416
			c-3.347-2.442-8.039-1.708-10.479,1.638c-2.441,3.346-1.708,8.038,1.638,10.479l9.355,6.826
			c-24.75,33.082-36.655,79.127-29.125,127.312c1.434,9.173,3.93,20.887,7.313,34.464l-13.336,2.791
			c-4.054,0.848-6.653,4.823-5.805,8.877c0.74,3.537,3.858,5.965,7.333,5.965c0.509,0,1.026-0.052,1.544-0.161l14.034-2.937
			c1.11,4.132,2.285,8.392,3.521,12.766l-12.994,8.887c-3.418,2.338-4.294,7.006-1.956,10.425c1.453,2.124,3.804,3.266,6.197,3.266
			c1.458,0,2.933-0.424,4.228-1.31l8.921-6.102C46.093,300.794,58.944,339.165,73.336,377.092z"/>
		<path d="M135.362,411.862c0.927,3.313,3.939,5.48,7.218,5.48c0.669,0,1.35-0.09,2.026-0.28c3.989-1.116,6.317-5.255,5.2-9.244
			c-6.882-24.585-13.833-50.9-20.662-78.214c-1.004-4.019-5.078-6.461-9.095-5.458c-4.019,1.005-6.462,5.077-5.457,9.095
			C121.454,360.691,128.442,387.142,135.362,411.862z"/>
		<path d="M90.382,69.216c-4.054-0.836-8.024,1.773-8.86,5.83c-6.152,29.827-6.251,67.295-0.28,105.501
			c4.003,25.61,14.09,73.137,26.324,124.033c0.827,3.438,3.899,5.749,7.286,5.749c0.581,0,1.17-0.068,1.759-0.209
			c4.027-0.968,6.507-5.018,5.54-9.045c-12.147-50.532-22.144-97.603-26.089-122.843c-5.701-36.475-5.647-72.044,0.15-100.155
			C97.049,74.019,94.438,70.052,90.382,69.216z"/>
		<path d="M219.95,396.866c0.15,4.044,3.476,7.222,7.49,7.222c0.094,0,0.188-0.001,0.283-0.005c4.139-0.153,7.37-3.633,7.216-7.773
			c-1.854-49.947-5.621-108.29-10.334-160.067c-0.376-4.125-4.025-7.166-8.149-6.789c-4.125,0.375-7.165,4.024-6.789,8.149
			C214.357,289.125,218.105,347.174,219.95,396.866z"/>
		<path d="M215.178,216.242c4.12-0.427,7.114-4.113,6.687-8.233c-2.081-20.063-4.144-36.837-5.968-48.506
			c-5.972-38.207-17.499-73.857-32.458-100.385c-2.034-3.607-6.608-4.883-10.217-2.849c-3.608,2.034-4.883,6.608-2.849,10.217
			c14.098,25.001,25.002,58.857,30.703,95.333c1.785,11.418,3.814,27.926,5.868,47.737c0.4,3.857,3.656,6.727,7.451,6.727
			C214.655,216.282,214.916,216.269,215.178,216.242z"/>
		<path d="M493.196,378.469l-10.761-1.322c3.956-13.194,4.739-27.056,2.153-39.887c-0.817-4.061-4.772-6.689-8.833-5.871
			c-4.061,0.818-6.689,4.773-5.871,8.833c2.605,12.927,0.976,27.233-4.585,40.277c-4.499,10.535-17.161,33.357-35.31,60.597
			c-2.296,3.447-1.364,8.104,2.083,10.4c1.278,0.852,2.723,1.259,4.152,1.259c2.424,0,4.803-1.174,6.249-3.342
			c5.404-8.111,10.583-16.228,15.311-23.959l7.932,7.932c1.464,1.465,3.384,2.197,5.303,2.197s3.839-0.732,5.303-2.197
			c2.929-2.929,2.929-7.678,0-10.606l-10.628-10.628c4.487-7.787,8.267-14.823,11.04-20.594l14.632,1.797
			c0.311,0.039,0.619,0.057,0.924,0.057c3.734,0,6.968-2.786,7.435-6.586C500.231,382.716,497.307,378.973,493.196,378.469z"/>
	</g>
</g>
<g>
</g>
<g>
</g>
<g>
</g>
<g>
</g>
<g>
</g>
<g>
</g>
<g>
</g>
<g>
</g>
<g>
</g>
<g>
</g>
<g>
</g>
<g>
</g>
<g>
</g>
<g>
</g>
<g>
</g>
</svg>
