<?xml version="1.0" encoding="iso-8859-1"?>
<!-- Generator: Adobe Illustrator 19.0.0, SVG Export Plug-In . SVG Version: 6.00 Build 0)  -->
<svg version="1.1" id="Layer_1" xmlns="http://www.w3.org/2000/svg" xmlns:xlink="http://www.w3.org/1999/xlink" x="0px" y="0px"
	 viewBox="0 0 505.001 505.001" style="enable-background:new 0 0 505.001 505.001;" xml:space="preserve">
<g>
	<g>
		<polygon style="fill:#E58B25;" points="497.502,339.578 410.053,246.682 225.709,442.51 497.502,442.51 		"/>
		<path style="fill:#FFC022;" d="M206.898,164.79L25.924,367.738c-16.64,18.66-3.394,48.219,21.608,48.219h383.337L206.898,164.79z"
			/>
		<polyline style="fill:#E58B25;" points="138.548,367.956 206.898,164.79 25.924,367.738 		"/>
		<circle style="fill:#FF9A47;" cx="362.527" cy="67.046" r="55.793"/>
		<path style="fill:#E58B25;" d="M497.502,396.935c-173.126,0-323.349-134.993-490-47.998v122.205
			c0,16.627,13.479,30.106,30.106,30.106h429.788c16.627,0,30.106-13.479,30.106-30.106V396.935z"/>
		<path style="fill:#FFC022;" d="M497.505,397.408v44.11c-91.03-14.28-124.97,35.28-241.96,35.28c-117,0-225.11-93-225.11-138.03
			C188.045,274.568,332.355,397.408,497.505,397.408z"/>
	</g>
	<g>
		<path d="M410.053,239.182c-2.068,0-4.044,0.854-5.461,2.359l-46.819,49.736c-2.839,3.016-2.696,7.762,0.32,10.602
			c3.016,2.839,7.763,2.696,10.602-0.32l41.358-43.935l81.988,87.095c1.476,1.568,3.467,2.359,5.462,2.359
			c1.843,0,3.691-0.676,5.139-2.039c3.016-2.839,3.16-7.586,0.32-10.602l-87.449-92.896
			C414.096,240.036,412.121,239.182,410.053,239.182z"/>
		<path d="M77.223,310.21c1.43,1.275,3.213,1.903,4.989,1.902c2.063,0,4.119-0.847,5.6-2.508l100.29-112.468l-31.558,93.805
			c-1.321,3.926,0.791,8.179,4.717,9.5c0.793,0.267,1.6,0.394,2.393,0.394c3.132,0,6.054-1.978,7.107-5.111l39.129-116.308
			l62.174,69.723c2.757,3.092,7.498,3.363,10.589,0.606c3.091-2.757,3.363-7.498,0.606-10.589l-70.764-79.356
			c-1.423-1.596-3.459-2.509-5.598-2.509s-4.175,0.913-5.598,2.509L76.617,299.621C73.86,302.713,74.132,307.454,77.223,310.21z"/>
		<path d="M375.116,364.703c1.481,1.662,3.537,2.508,5.6,2.508c1.776,0,3.559-0.627,4.989-1.902
			c3.091-2.757,3.363-7.498,0.606-10.589l-85.977-96.417c-2.756-3.091-7.498-3.362-10.589-0.606
			c-3.091,2.757-3.363,7.498-0.606,10.589L375.116,364.703z"/>
		<path d="M362.527,130.34c34.9,0,63.293-28.393,63.293-63.293c0-34.9-28.394-63.293-63.293-63.293
			c-24.078,0-46.436,14.001-56.961,35.671c-1.81,3.726-0.257,8.213,3.469,10.023c3.726,1.81,8.213,0.256,10.023-3.469
			c8.157-16.792,24.813-27.224,43.469-27.224c26.629,0,48.293,21.664,48.293,48.293c0,26.629-21.665,48.293-48.293,48.293
			s-48.293-21.664-48.293-48.293c0-4.142-3.358-7.5-7.5-7.5s-7.5,3.358-7.5,7.5C299.233,101.946,327.627,130.34,362.527,130.34z"/>
		<path d="M497.501,389.435c-14.012,0-28.707-0.929-43.678-2.762c-4.107-0.505-7.852,2.422-8.355,6.533s2.421,7.853,6.533,8.356
			c15.573,1.906,30.881,2.873,45.5,2.873c4.142,0,7.5-3.358,7.5-7.5S501.644,389.435,497.501,389.435z"/>
		<path d="M438.162,392.11c0.709-4.081-2.024-7.964-6.105-8.673c-42.206-7.335-83.954-20.542-124.327-33.313
			c-48.78-15.431-99.221-31.387-149.282-36.313c-56.54-5.564-107.052,3.752-154.417,28.478c-3.672,1.917-5.095,6.448-3.178,10.119
			c1.917,3.672,6.446,5.094,10.119,3.178c99.724-52.059,193.233-22.478,292.234,8.839c40.846,12.921,83.083,26.282,126.283,33.79
			c0.435,0.076,0.867,0.112,1.293,0.112C434.36,398.327,437.528,395.756,438.162,392.11z"/>
		<path d="M74.076,388.96c-1.137-2.839-4.063-4.702-7.105-4.625c-3.064,0.078-5.845,2.078-6.873,4.966
			c-1.048,2.944-0.125,6.343,2.3,8.323c2.54,2.074,6.19,2.243,8.919,0.436C74.249,396.118,75.447,392.208,74.076,388.96z"/>
		<path d="M94.086,377.46c-1.195-2.824-4.031-4.704-7.113-4.625c-3.081,0.079-5.825,2.078-6.872,4.966
			c-1.064,2.936-0.121,6.351,2.299,8.323c2.542,2.07,6.186,2.244,8.915,0.436C94.283,384.595,95.397,380.741,94.086,377.46z"/>
		<path d="M74.076,362.96c-1.137-2.839-4.063-4.702-7.105-4.625c-3.064,0.078-5.845,2.078-6.873,4.966
			c-1.048,2.944-0.125,6.343,2.3,8.323c2.54,2.074,6.19,2.243,8.919,0.436C74.249,370.118,75.447,366.208,74.076,362.96z"/>
		<path d="M472.296,445.18c-2.868-1.934-6.83-1.576-9.328,0.805c-2.258,2.152-2.945,5.573-1.695,8.432
			c1.29,2.948,4.392,4.763,7.597,4.457c3.009-0.287,5.588-2.433,6.45-5.32C476.241,450.472,475.025,446.934,472.296,445.18z"/>
		<path d="M461.936,436.72c4.501-4.5,1.445-12.484-4.933-12.794c-3.055-0.148-5.987,1.647-7.222,4.447
			c-1.317,2.986-0.517,6.589,1.959,8.718C454.673,439.612,459.195,439.461,461.936,436.72z"/>
		<path d="M446.296,445.18c-2.927-1.974-6.966-1.551-9.46,0.93c-2.206,2.194-2.801,5.621-1.505,8.443
			c2.67,5.812,11.298,5.663,13.735-0.272C450.394,451.047,449.266,447.089,446.296,445.18z"/>
		<path d="M118.076,421.059c-2.427-6.061-11.396-6.006-13.85,0c-1.238,3.029-0.35,6.587,2.175,8.665
			c2.415,1.988,5.907,2.24,8.59,0.645C118.138,428.5,119.504,424.444,118.076,421.059z"/>
	</g>
</g>
<g>
</g>
<g>
</g>
<g>
</g>
<g>
</g>
<g>
</g>
<g>
</g>
<g>
</g>
<g>
</g>
<g>
</g>
<g>
</g>
<g>
</g>
<g>
</g>
<g>
</g>
<g>
</g>
<g>
</g>
</svg>
