<?xml version="1.0" encoding="iso-8859-1"?>
<!-- Generator: Adobe Illustrator 19.0.0, SVG Export Plug-In . SVG Version: 6.00 Build 0)  -->
<svg version="1.1" id="Layer_1" xmlns="http://www.w3.org/2000/svg" xmlns:xlink="http://www.w3.org/1999/xlink" x="0px" y="0px"
	 viewBox="0 0 505 505" style="enable-background:new 0 0 505 505;" xml:space="preserve">
<g>
	<g>
		<path style="fill:#E58B25;" d="M7.501,370.516v100.761c0,16.627,13.479,30.106,30.106,30.106h429.788
			c16.627,0,30.106-13.479,30.106-30.106V370.516l-298.997-33.864L7.501,370.516z"/>
		<circle style="fill:#FF9A47;" cx="132.528" cy="66.911" r="55.793"/>
		<path style="fill:#FFC022;" d="M497.501,370.516h-0.167c-19.283,0-36.262-12.525-42.147-30.888
			c-14.416-44.982-51.628-123.211-136.091-123.211c-118.545,0-242.669,154.099-311.595,154.099
			c209.935-30.932,209.003,70.136,489.833,0"/>
		<path style="fill:#E58B25;" d="M497.501,370.516c-86.43,21.59-146.17,26.96-193.58,24.95c58.75-24.81,53.45-78.04,27.89-103.6
			c-35.25-35.26-12.57-75.41,13.99-72.67h0.03c65.92,14.29,96.72,80.48,109.52,120.44
			C461.241,357.996,478.221,370.516,497.501,370.516z"/>
	</g>
	<g>
		<path d="M132.528,130.204c34.9,0,63.293-28.393,63.293-63.293c0-4.142-3.358-7.5-7.5-7.5s-7.5,3.358-7.5,7.5
			c0,26.629-21.665,48.293-48.293,48.293S84.235,93.54,84.235,66.911c0-26.629,21.664-48.293,48.293-48.293
			c18.656,0,35.313,10.432,43.47,27.225c1.81,3.726,6.298,5.28,10.023,3.469c3.726-1.81,5.279-6.297,3.469-10.023
			c-10.525-21.669-32.884-35.671-56.962-35.671c-34.9,0-63.293,28.393-63.293,63.293C69.235,101.811,97.628,130.204,132.528,130.204
			z"/>
		<path d="M59.119,309.727h2.456v11.806c0,4.142,3.358,7.5,7.5,7.5s7.5-3.358,7.5-7.5v-47.131c0-4.142-3.358-7.5-7.5-7.5
			s-7.5,3.358-7.5,7.5v20.325h-2.456c-2.177,0-3.947-1.771-3.947-3.948v-12.097c0-4.142-3.358-7.5-7.5-7.5s-7.5,3.358-7.5,7.5
			v12.097C40.172,301.227,48.672,309.727,59.119,309.727z"/>
		<path d="M85.433,417.779c-2.495-5.913-11.169-6.096-13.785-0.167c-1.342,3.043-0.481,6.732,2.099,8.838
			c2.425,1.98,5.901,2.233,8.591,0.642C85.541,425.199,86.775,421.204,85.433,417.779z"/>
		<path d="M73.243,404.809c1.911-2.83,1.579-6.755-0.735-9.25c-1.998-2.156-5.163-2.957-7.943-1.999
			c-2.994,1.032-5.056,3.919-5.062,7.089c-0.006,3.174,2.075,6.063,5.066,7.09C67.751,408.832,71.378,407.61,73.243,404.809z"/>
		<path d="M59.424,417.779c-2.4-5.998-11.194-6.017-13.775-0.167c-1.342,3.042-0.482,6.73,2.099,8.834
			c2.426,1.978,5.899,2.238,8.591,0.646C59.508,425.219,60.826,421.175,59.424,417.779z"/>
		<path d="M505,370.516c0-4.036-3.191-7.318-7.186-7.484c-0.04-0.003-0.08-0.004-0.12-0.006c-0.065-0.002-0.128-0.01-0.194-0.01
			h-0.167c-16.015,0-30.083-10.319-35.004-25.677c-7.181-22.408-20.511-54.664-43.234-81.076
			c-27.028-31.417-60.673-47.346-99.999-47.346c-69.674,0-139.146,49.906-200.44,93.937c-36.64,26.32-71.552,51.399-98.031,58.301
			c-4.667,0.586-9.405,1.233-14.217,1.942c-3.888,0.573-6.674,4.049-6.387,7.968s3.55,6.952,7.48,6.952
			c5.102,0,10.411-0.73,15.925-2.095c35.465-4.394,66.803-5.123,97.582-2.323c4.124,0.375,7.773-2.665,8.148-6.79
			c0.375-4.125-2.665-7.773-6.79-8.148c-18.677-1.698-37.523-2.146-57.281-1.314c19.195-11.328,40.039-26.301,62.323-42.309
			c58.752-42.205,125.249-89.967,189.384-91.092c-2.464,2.813-4.605,6.049-6.326,9.658c-4.397,9.225-5.527,19.728-3.27,30.372
			c2.508,11.826,8.951,22.993,19.148,33.19c16.645,16.646,23.835,46.992,4.376,70.447c-2.645,3.188-2.205,7.916,0.983,10.561
			c1.4,1.162,3.098,1.728,4.785,1.728c2.154,0,4.293-0.924,5.776-2.711c25.128-30.287,16.017-69.301-5.313-90.631
			c-14.888-14.888-19.728-32.272-12.945-46.502c4.216-8.846,12.185-14.061,20.4-13.43c61.76,13.681,91.118,76.219,103.639,115.292
			c3.741,11.673,11.253,21.268,20.925,27.627c-138.794,31.234-203.206,16.965-265.604,3.133c-16.194-3.59-32.939-7.302-50.708-10.17
			c-4.084-0.657-7.939,2.12-8.599,6.209c-0.66,4.089,2.12,7.939,6.209,8.599c17.338,2.798,33.867,6.462,49.852,10.006
			c35.785,7.933,72.204,16.007,122.165,16.007c44.796,0,100.483-6.496,176.334-25.405C502.229,377.383,505,374.277,505,370.516z"/>
		<path d="M451.433,429.779c-2.491-5.905-11.174-6.104-13.778-0.167c-1.336,3.047-0.498,6.723,2.092,8.834
			c2.429,1.98,5.895,2.24,8.591,0.646C451.541,437.199,452.775,433.204,451.433,429.779z"/>
		<path d="M432.853,422.079c-1.223-2.96-4.285-4.843-7.48-4.61c-3.009,0.219-5.611,2.276-6.561,5.125
			c-2.159,6.475,5.136,12.251,10.964,8.78C432.91,429.508,434.282,425.456,432.853,422.079z"/>
		<path d="M289.054,354.959c3.689,5.601,12.685,3.563,13.65-3.062c0.451-3.094-1.117-6.246-3.885-7.713
			c-2.842-1.507-6.407-1.011-8.728,1.212C287.509,347.869,287.05,351.99,289.054,354.959z"/>
		<path d="M272.904,366.959c1.764,2.584,5.009,3.886,8.064,3.107c3.047-0.776,5.317-3.403,5.639-6.534
			c0.299-2.918-1.222-5.818-3.769-7.259c-2.938-1.662-6.764-1.116-9.101,1.328C271.327,360.121,270.987,364.049,272.904,366.959z"/>
	</g>
</g>
<g>
</g>
<g>
</g>
<g>
</g>
<g>
</g>
<g>
</g>
<g>
</g>
<g>
</g>
<g>
</g>
<g>
</g>
<g>
</g>
<g>
</g>
<g>
</g>
<g>
</g>
<g>
</g>
<g>
</g>
</svg>
