<?xml version="1.0" encoding="iso-8859-1"?>
<!-- Generator: Adobe Illustrator 18.0.0, SVG Export Plug-In . SVG Version: 6.00 Build 0)  -->
<!DOCTYPE svg PUBLIC "-//W3C//DTD SVG 1.1//EN" "http://www.w3.org/Graphics/SVG/1.1/DTD/svg11.dtd">
<svg version="1.1" id="Capa_1" xmlns="http://www.w3.org/2000/svg" xmlns:xlink="http://www.w3.org/1999/xlink" x="0px" y="0px"
	 viewBox="0 0 264.16 264.16" style="enable-background:new 0 0 264.16 264.16;" xml:space="preserve">
<g>
	<path d="M263.948,223.166c-6.473-16.095-20.139-28.696-37.003-32.643c0.21-26.523-6.661-52.946-17.9-76.917
		c-5.61-11.966-12.427-23.409-20.359-33.98c-2.63-3.505-10.845-10.888-12.812-15.441c-6.309-14.604-0.773-22.47,8.334-32.265
		c2.074-2.231,0.664-6.165-2.542-6.136c-17.705,0.16-32.373,3.965-47.541,12.481c-11.641-8.18-25.574-13.213-39.923-12.949
		c-21.735,0.399-30.004,12.07-45.474,24.096c-7.202,5.598-29.773,5.823-23.782,20.595c1.048,2.584,3.974,4.5,6.35,5.778
		c3.206,1.725,7.261,1.048,10.646,1.569c12.367,1.907,22.301,4.407,33.946,9.25c-0.723,12.431,1.033,24.801,6.635,36.367
		c1.404,2.897,5.851,1.982,6.644-0.868c2.874-10.331,6.073-19.032,10.759-27.157c48.505,21.119,81.355,59.056,116.444,97.13
		c-13.62,9.296-19.704,27.374-18.498,43.301c0.182,2.396,2.093,3.852,4.453,3.392c12.652-2.463,20.692-17.384,22.891-31.359
		c6.801,11.073,21.875,16.678,34.365,20.122C261.963,228.189,264.992,225.764,263.948,223.166z"/>
	<path d="M173.544,183.615c-5.821-7.174-10.783-12.655-8.554-22.714c0.477-2.154-1.338-4.05-3.524-3.524
		c-10.436,2.512-24.106,9.535-29.031,20.051c-6.043-11.785-4.663-22.841-1.383-35.669c0.535-2.095-1.435-4.362-3.642-3.642
		c-12.131,3.958-22.781,11.308-30.487,21.527c-3.416,4.531-6.343,9.523-8.24,14.892c-0.454,1.285-0.672,3.562-0.959,5.707
		c-6.761-6.105-9.445-14.722-3.782-22.755c1.159-1.645-0.383-4.102-2.305-4.017c-9.364,0.414-18.156,3.37-25.488,9.329
		c-0.744,0.605-2.41,1.932-4.025,3.511c-1.251-10.607,0.827-19.443,9.038-27.542c1.688-1.665,0.411-4.598-1.915-4.623
		c-32.24-0.347-60.826,25.211-59.179,58.523c0.137,2.76,4.093,2.742,4.275,0c1.883-28.284,20.824-50.481,48.851-52.886
		c-6.604,8.941-9.376,20.513-5.132,31.256c0.087,0.221,0.218,0.376,0.337,0.551c-0.363,1.302-0.14,2.498,1.264,3.357
		c1.047,0.64,2.065-0.225,2.202-1.263l0.032-0.244c0.012-0.093-0.044-0.166-0.057-0.254c-0.321-2.547,10.512-9.02,12.392-9.987
		c4.069-2.095,8.34-3.403,12.789-4.009c-3.477,8.963-0.879,20.679,8.167,25.195c0.497,0.248,1.012,0.272,1.5,0.183
		c-0.089,0.169-0.171,0.363-0.274,0.483c-0.256,0.299,0.175,0.735,0.435,0.435c0.725-0.461,1.451-0.922,2.176-1.384
		c0.756,0.09,1.643-0.496,1.987-1.14c4.344-8.104,7.118-16.128,13.425-23.122c5.545-6.147,12.207-10.696,19.643-13.986
		c-2.584,12.454-3.773,26.328,5.375,36.219c0.848,0.917,1.956,0.871,2.817,0.359c0.199,0.192,0.398,0.384,0.596,0.576
		c0.967,0.934,3.151,0.35,2.949-1.222c-0.532-4.149,9.52-10.916,12.008-12.536c3.48-2.265,7.198-3.936,11.097-5.194
		c-0.395,9.271,3.35,20.083,12.455,23.277C173.689,188.145,174.802,185.165,173.544,183.615z"/>
	<path d="M73.71,221.459c-8.821-10.361-12.188-24.162-2.211-35.308c1.082-1.21,0.461-3.774-1.478-3.569
		c-12.656,1.341-23.708,6.706-32.372,15.91c-3.67-7.195-7.375-13.046-8.35-21.387c-0.153-1.311-1.706-2.251-2.772-1.148
		c-7.773,8.041-12.261,18.763-11.321,30.023c0.109,1.3,2.006,1.336,2.05,0c0.314-9.518,3.209-18.102,9.268-25.217
		c1.141,7.211,3.799,15.044,9.156,19.829c0.126,0.112,0.266,0.101,0.4,0.163c0.013,1.149,1.393,2.133,2.417,1.073
		c7.429-7.696,16.688-12.7,27.068-14.496c-6.915,11.58-6.286,29.322,5.964,36.955C73.352,225.424,74.978,222.948,73.71,221.459z"/>
	<path d="M167.267,212.042c-3.406-5.046-6.87-9.708-9.591-15.178c-0.701-1.409-2.653-1.443-3.692-0.475
		c-5.058,4.705-8.378,9.83-10.574,16.037c-4.042-4.033-6.7-8.741-8.046-14.606c-0.308-1.344-2.223-2.275-3.411-1.388
		c-9.497,7.098-17.898,15.115-25.002,24.613c-2.463-2.577-4.836-4.718-5.915-8.468c-0.822-2.857-0.103-5.558-0.658-8.371
		c-0.557-2.822-2.366-4.953-5.393-4.076c-2.422,0.702-4.718,3.514-6.477,5.136c-2.936,2.709-5.762,5.558-8.395,8.563
		c-2.947,3.363-5.807,7.096-4.074,11.672c0.52,1.373,2.577,0.86,2.231-0.615c-1.243-5.293,6.546-11.104,9.953-14.254
		c1.038-0.96,4.675-5.218,6.057-5.233c3.124-0.034,1.872,2.318,1.995,4.38c0.362,6.047,3.884,12.922,9.803,15.081
		c1.085,0.395,1.824-0.382,2.03-1.301c0.238-0.05,0.483-0.085,0.678-0.3c7.085-7.828,14.556-14.793,23.045-20.983
		c1.973,6.472,5.46,11.732,10.982,16.141c1.351,1.079,3.51,0.838,4.009-1.058c1.593-6.056,4.264-10.888,8.297-15.309
		c2.484,4.549,5.291,8.696,9.274,12.21C165.865,215.559,168.496,213.862,167.267,212.042z"/>
</g>
<g>
</g>
<g>
</g>
<g>
</g>
<g>
</g>
<g>
</g>
<g>
</g>
<g>
</g>
<g>
</g>
<g>
</g>
<g>
</g>
<g>
</g>
<g>
</g>
<g>
</g>
<g>
</g>
<g>
</g>
</svg>
